<?xml version="1.0" encoding="UTF-8"?>
<svg xmlns="http://www.w3.org/2000/svg" version="1.1" viewBox="0 0 600 600">
  <defs>
    <style>
      .cls-1 {
        fill: #070942;
      }
    </style>
  </defs>
  <!-- Generator: Adobe Illustrator 28.7.1, SVG Export Plug-In . SVG Version: 1.2.0 Build 142)  -->
  <g>
    <g id="Layer_1">
      <g>
        <path class="cls-1" d="M108.89,300.49c12.2-20.39,29.16-47.86,49.04-79.46,17.46-27.75,37.22-58.72,53.89-84.38-21.66,10.19-41.25,23.95-58.32,41.02-19.02,19.02-33.96,41.18-44.4,65.85-8.57,20.25-13.77,41.5-15.57,63.36,3.97-.21,7.94-.42,11.92-.62,1.1-1.85,2.24-3.77,3.44-5.77Z"/>
        <path class="cls-1" d="M394.57,151.81c.34.25.67.51.96.75,7.78,6.31,13.89,13.42,17.66,18.3l.24.32c10.43,13.93,49,79.02,81.89,135.12,3.72.19,7.43.38,11.14.58-1.8-21.86-7-43.11-15.57-63.36-10.44-24.67-25.37-46.83-44.4-65.85s-41.18-33.96-65.85-44.4c-7.79-3.29-15.73-6.09-23.79-8.39-.2,1.72-.41,3.34-.61,4.85-.52,3.92-1.82,7.57-3.73,10.82,2.19-.24,4.42-.37,6.66-.37,12.77,0,25.34,4.13,35.4,11.62Z"/>
        <path class="cls-1" d="M359.08,184.37c2.78,0,5.65.84,8.04,2.54,4.27,3.51,7.81,7.66,10.07,10.58,7.61,10.17,45.03,64.18,74.83,106.88,8.87.35,17.74.72,26.6,1.13-26.3-44.8-66.37-112.53-76.4-125.93-.04-.06-.09-.12-.13-.18-3.3-4.27-8.64-10.5-15.37-15.96-.16-.13-.33-.26-.5-.39-8-5.95-17.58-8.85-27.04-8.85-12.32,0-24.44,4.9-32.65,14.37-13.31,15.36-11.05,32.42-9.4,44.89,1.01,7.63,7.69,13.19,15.38,13.19.66,0,1.33-.04,2.01-.13,8.51-1.07,14.52-8.65,13.42-16.94-1.5-11.35-1.74-16.81,2.33-21.5,2.13-2.46,5.41-3.71,8.82-3.71Z"/>
        <path class="cls-1" d="M292.96,286.49c.68.09,1.35.13,2.02.13,7.69,0,14.37-5.57,15.38-13.2,1.65-12.46,3.91-29.53-9.4-44.89-8.21-9.47-20.34-14.37-32.65-14.37-9.47,0-19.05,2.9-27.04,8.85l-.5.39c-6.73,5.46-12.08,11.69-15.37,15.96l-.13.18c-4.68,6.26-23.87,36.6-41.09,63.58,10.2-.3,20.4-.57,30.6-.79,16.35-20.65,32.54-40.88,35.52-44.87,2.26-2.92,5.8-7.06,10.07-10.58,2.4-1.71,5.26-2.55,8.05-2.55,3.41,0,6.69,1.26,8.82,3.71,4.07,4.69,3.83,10.15,2.33,21.5-1.1,8.29,4.91,15.87,13.42,16.94Z"/>
        <path class="cls-1" d="M146.1,304.45c41.54-59.2,120.3-171.28,136.19-192.51,2.26-2.91,5.8-7.06,10.07-10.58,2.4-1.71,5.26-2.54,8.04-2.54,3.41,0,6.69,1.26,8.82,3.71,4.08,4.71,3.86,9.9,2.33,21.5-1.1,8.29,4.91,15.87,13.42,16.94.68.09,1.35.13,2.02.13,7.69,0,14.36-5.57,15.37-13.2,1.65-12.46,3.91-29.54-9.4-44.89-8.21-9.47-20.34-14.37-32.65-14.37-9.47,0-19.05,2.9-27.04,8.85-.17.13-.34.26-.5.39-6.74,5.46-12.08,11.7-15.37,15.96-.04.06-.09.12-.13.18-16.14,21.55-95.94,146.33-135.03,211.44,7.95-.36,15.91-.7,23.87-1.02Z"/>
        <path class="cls-1" d="M128.59,385.98c-1.29-1.05-2.78-1.72-4.48-2.01-1.69-.29-3.43-.4-5.2-.33-2.76.11-4.82.2-6.17.25-1.35.06-3.37.14-6.07.26.14,3.36.25,5.87.32,7.52.07,1.65.18,4.12.32,7.42,2.62-.11,4.58-.2,5.85-.25,1.28-.05,3.2-.13,5.76-.24,1.84-.07,3.62-.31,5.34-.7,1.73-.39,3.24-1.16,4.54-2.31,1.3-1.15,1.92-2.79,1.83-4.93-.08-2.07-.76-3.63-2.05-4.68Z"/>
        <path class="cls-1" d="M469.46,442.57c.67.03,1.28,0,1.84-.09.55-.09,1.05-.32,1.48-.69.43-.38.67-.94.7-1.67.03-.72-.15-1.27-.53-1.67-.38-.4-.84-.67-1.39-.81-.55-.14-1.12-.22-1.72-.25-.17,0-.34-.01-.5-.02-.79-.03-1.38-.05-1.76-.07-.38-.01-.96-.04-1.73-.07-.04,1.17-.08,2.04-.1,2.61-.02.57-.05,1.43-.1,2.58.86.03,1.5.06,1.92.07.42.02,1.05.04,1.89.07Z"/>
        <path class="cls-1" d="M128.66,442.87c-.4-1.02-.88-2.2-1.43-3.54-.02,0-.05,0-.07,0-.36,1.11-.73,2.24-1.09,3.37-.47,1.45-.94,2.91-1.41,4.39,1.27-.05,2.21-.09,2.83-.11.62-.02,1.56-.06,2.8-.11-.18-.45-.37-.89-.55-1.34-.32-.75-.67-1.64-1.07-2.66Z"/>
        <path class="cls-1" d="M189.96,435.93c-1.13-.26-2.39-.37-3.75-.33-.72.02-1.26.03-1.62.04-.36,0-.89.02-1.58.04.14,5.39.28,10.78.43,16.17.07,0,.13,0,.18,0,.91-.02,1.59-.04,2.04-.05.45-.01,1.12-.03,2.01-.05,1.27-.03,2.42-.27,3.46-.71,1.04-.44,1.9-1.26,2.58-2.46.68-1.2.99-2.86.94-4.98-.06-2.48-.57-4.31-1.53-5.5-.96-1.18-2.01-1.9-3.15-2.16Z"/>
        <path class="cls-1" d="M471.77,448.33c-.61-.15-1.23-.24-1.88-.27-1.01-.04-1.75-.07-2.24-.09-.49-.02-1.23-.05-2.21-.08-.05,1.24-.08,2.16-.1,2.77-.02.61-.06,1.52-.1,2.74.96.04,1.67.06,2.13.08.47.02,1.16.04,2.1.08.67.03,1.32,0,1.96-.1.64-.1,1.21-.33,1.72-.72.5-.39.77-.97.8-1.76.03-.76-.17-1.36-.61-1.78-.44-.42-.96-.71-1.56-.87Z"/>
        <path class="cls-1" d="M116.53,368.87c1.85-.07,3.53-.29,5.03-.64,1.51-.35,2.82-1.08,3.93-2.19,1.11-1.11,1.63-2.67,1.56-4.67-.07-1.94-.68-3.41-1.81-4.4-1.13-.99-2.47-1.62-4-1.88-1.54-.26-3.13-.36-4.79-.29-.46.02-.93.04-1.39.06-2.18.09-3.81.16-4.87.2-1.06.04-2.65.11-4.77.2.14,3.17.24,5.53.31,7.08.07,1.55.17,3.88.3,6.98,2.38-.1,4.14-.18,5.3-.23,1.15-.05,2.89-.12,5.2-.22Z"/>
        <path class="cls-1" d="M499.34,449.49c-.6-.16-1.23-.25-1.87-.28-1.01-.04-1.75-.08-2.24-.1-.49-.02-1.23-.05-2.21-.1-.05,1.24-.09,2.16-.12,2.77-.03.61-.07,1.52-.12,2.74.96.04,1.67.07,2.13.09.47.02,1.17.05,2.1.09.67.03,1.32,0,1.96-.09.64-.09,1.21-.33,1.72-.71.51-.38.78-.97.82-1.75.04-.76-.17-1.36-.6-1.78-.44-.43-.96-.72-1.56-.88Z"/>
        <path class="cls-1" d="M240.73,370.08c2.24-.03,3.89-.05,4.95-.06,1.06-.01,2.67-.03,4.85-.06,1.72-.02,3.48-.25,5.29-.69,1.81-.44,3.44-1.34,4.88-2.71,1.44-1.37,2.15-3.38,2.13-6.04-.03-3.62-1.36-6.12-3.99-7.49-2.63-1.37-5.3-2.04-8.02-2.01-2.32.03-4.06.05-5.22.06-1.16.01-2.87.03-5.12.06.05,4.01.11,8.06.16,12.13.03,2.27.06,4.53.09,6.79Z"/>
        <path class="cls-1" d="M247.37,450.04c1.17.71,2.46,1.06,3.87,1.05,1.43-.02,2.71-.4,3.84-1.15,1.13-.75,2.01-1.78,2.64-3.09.63-1.31.94-2.77.93-4.39-.01-1.57-.35-3.01-.99-4.32-.65-1.31-1.55-2.33-2.69-3.09-1.15-.75-2.45-1.12-3.92-1.1-1.44.02-2.73.4-3.87,1.15-1.14.75-2.04,1.79-2.68,3.11-.64,1.32-.95,2.79-.93,4.41.02,1.67.37,3.15,1.04,4.43.67,1.28,1.59,2.28,2.76,2.99Z"/>
        <path class="cls-1" d="M497.06,443.71c.67.03,1.28,0,1.84-.08.56-.08,1.05-.31,1.49-.68.44-.38.67-.93.71-1.67.03-.72-.14-1.27-.52-1.67-.38-.4-.84-.67-1.39-.81-.55-.14-1.12-.23-1.72-.26-.17,0-.34-.01-.5-.02-.79-.03-1.38-.06-1.76-.08-.38-.02-.96-.04-1.73-.08-.05,1.17-.09,2.04-.11,2.61-.03.57-.06,1.43-.11,2.57.86.04,1.5.07,1.92.08.42.02,1.05.05,1.89.08Z"/>
        <path class="cls-1" d="M539.22,316.77c-79.66-4.93-159.44-7.39-239.22-7.39s-159.55,2.46-239.22,7.39c-2.31.14-4.07,2.05-3.93,4.25,3.42,54.39,6.84,108.78,10.27,163.17.13,2.12,1.9,3.75,4,3.75.08,0,.17,0,.25,0,55.18-3.41,110.41-5.56,165.66-6.5l-2.34,8.05c-19.2.35-38.42.83-57.64,1.47,13.07,9.66,27.21,17.73,42.3,24.12,25.55,10.81,52.69,16.29,80.65,16.29s55.1-5.48,80.65-16.29c15.09-6.38,29.24-14.46,42.3-24.12-19.22-.64-38.44-1.12-57.64-1.47l-2.24-7.71-.1-.34c55.25.94,110.48,3.09,165.66,6.5.08,0,.17,0,.25,0,2.1,0,3.86-1.63,4-3.75,3.42-54.39,6.84-108.78,10.27-163.17.14-2.2-1.62-4.11-3.93-4.25ZM381.78,335.87c17.19.31,34.38.72,51.57,1.22-.16,5.3-.31,10.61-.47,15.91-2.02-.06-4.04-.12-6.06-.17-6.29-.18-10.97-.3-14.01-.37-3.05-.08-7.62-.19-13.72-.32-.04,1.62-.07,3.24-.11,4.85-.04,1.88-.07,3.27-.09,4.17-.02.91-.05,2.27-.09,4.08,7.2.16,12.54.29,16.01.38,3.47.09,8.71.23,15.71.43-.16,5.6-.32,11.19-.49,16.79-7.17-.21-12.49-.35-15.95-.43-3.46-.09-8.67-.22-15.65-.37-.07,3.17-.12,5.52-.15,7.04-.03,1.52-.08,3.83-.15,6.94,7.81.17,13.62.32,17.42.42,3.8.1,9.48.25,17.03.47-.16,5.3-.31,10.61-.47,15.91-17.23-.51-34.46-.92-51.69-1.23.46-25.23.91-50.47,1.37-75.7ZM295.46,351.88c3.6-5.99,8.45-10.54,14.54-13.63,6.09-3.09,12.7-4.62,19.82-4.57,5.92.04,11.3,1.14,16.14,3.29,4.83,2.15,8.93,5.1,12.3,8.83,3.37,3.73,5.88,7.94,7.53,12.63-5.49,2.06-10.97,4.12-16.45,6.2-1.93-4.49-4.48-8.06-7.63-10.71-3.16-2.65-7.16-3.99-12-4.03-4.04-.03-7.68.91-10.9,2.81-3.22,1.9-5.76,4.64-7.62,8.23-1.86,3.59-2.79,7.78-2.8,12.56,0,5.57,1.17,10.07,3.53,13.5,2.36,3.44,5.26,5.86,8.7,7.26,3.44,1.41,6.89,2.12,10.37,2.15,2.89.02,5.58-.4,8.08-1.25,2.5-.85,4.63-2.14,6.39-3.87,1.76-1.73,3.01-3.82,3.76-6.27-4.08-.04-7.1-.07-9.08-.09-1.97-.02-4.93-.04-8.88-.07.03-4.66.06-9.32.1-13.98,11.85.08,23.69.21,35.54.39-.2,13.36-.4,26.72-.6,40.09-4.38-.07-8.76-.12-13.14-.18-.06-.65-.12-1.26-.17-1.85-.12-1.23-.23-2.48-.35-3.74-.12-1.26-.23-2.54-.35-3.84-.16,0-.33,0-.49,0-2.86,3.66-6.28,6.38-10.25,8.19-3.98,1.81-8.61,2.69-13.9,2.66-7.19-.04-13.62-1.75-19.31-5.13-5.69-3.37-10.15-8.05-13.37-14.03-3.22-5.98-4.85-12.79-4.87-20.42-.02-8.09,1.76-15.13,5.37-21.12ZM343.99,439.19c1.26.01,3.16.03,5.7.06-.02,2.06-.05,4.13-.07,6.19-2.61-.03-4.54-.05-5.8-.06-1.26-.01-3.15-.03-5.69-.05,0,1.17-.02,2.03-.02,2.59,0,.56-.01,1.41-.02,2.56,2.84.02,4.96.05,6.35.06,1.39.01,3.45.04,6.2.07-.02,1.96-.04,3.91-.07,5.87-6.29-.07-12.58-.13-18.87-.18.07-9.31.13-18.61.2-27.92,6.21.04,12.42.1,18.63.17-.02,1.96-.04,3.91-.07,5.87-.73,0-1.46-.02-2.2-.02-2.28-.02-3.97-.04-5.07-.05-1.1-.01-2.76-.03-4.97-.05,0,.6-.01,1.19-.02,1.79,0,.69-.01,1.2-.01,1.54,0,.33,0,.84-.01,1.5,2.61.02,4.55.04,5.81.05ZM309.64,439.48c3.29-3.74,6.59-7.46,9.9-11.17,2.5.01,5,.02,7.5.04-2.44,2.73-4.25,4.75-5.43,6.07-1.18,1.32-2.95,3.3-5.31,5.94,0,.01,0,.02,0,.04,2.5,3.59,4.36,6.26,5.57,8.01,1.21,1.75,3.04,4.37,5.48,7.87-2.57-.02-5.13-.03-7.7-.04-1.71-2.49-2.99-4.34-3.83-5.55-.84-1.21-2.1-3.02-3.77-5.44-.01,0-.02,0-.04,0-.58.67-1.01,1.16-1.3,1.46-.29.31-.71.79-1.26,1.43,0,1.81,0,3.16,0,4.05,0,.88,0,2.22,0,4.01-2.11,0-4.23,0-6.34,0,0-9.31.01-18.61.02-27.92,2.13,0,4.25,0,6.38,0,0,2.53,0,4.41-.01,5.66,0,1.24,0,3.09-.01,5.55.06,0,.12,0,.18,0ZM290.1,428.83c1.74.75,3.24,1.8,4.49,3.16,1.25,1.36,2.21,2.92,2.88,4.69-1.98.79-3.95,1.58-5.93,2.37-.7-1.62-1.64-2.92-2.81-3.89-1.18-.98-2.65-1.46-4.43-1.45-1.49,0-2.81.37-3.95,1.09-1.15.72-2.04,1.75-2.68,3.07-.64,1.33-.96,2.86-.95,4.6.01,1.98.42,3.6,1.23,4.84.81,1.25,1.82,2.15,3.03,2.71,1.21.56,2.47.83,3.79.83,1.12,0,2.18-.22,3.17-.65.99-.43,1.88-1.11,2.67-2.03.79-.92,1.41-2.07,1.86-3.46,1.98.66,3.95,1.33,5.92,2-1.15,3.51-2.93,6.07-5.33,7.68-2.41,1.62-5.16,2.43-8.27,2.44-2.79,0-5.3-.59-7.53-1.79s-3.97-2.92-5.24-5.14c-1.27-2.22-1.91-4.79-1.93-7.7-.02-3.03.64-5.64,1.98-7.82,1.34-2.18,3.11-3.83,5.3-4.95,2.19-1.12,4.54-1.69,7.04-1.7,2.07,0,3.97.36,5.71,1.11ZM253.65,335.37c2.66-.03,5.99.39,9.99,1.27,4,.88,7.94,3.16,11.81,6.86,3.87,3.7,5.82,9.28,5.85,16.72.02,4.6-.76,8.48-2.33,11.66-1.57,3.18-3.55,5.66-5.94,7.46-2.4,1.8-5.07,3.19-8.02,4.18,0,.03,0,.06,0,.1,3.26,4.63,6.48,9.3,9.65,14.01,3.04,4.38,6.08,8.8,9.1,13.26-6.54.02-13.08.06-19.62.11-5.82-8.59-11.68-17.17-17.58-25.74-1.25.01-2.19.03-2.81.03-.63,0-1.56.02-2.81.04.04,3.37.09,6.73.13,10.09.07,5.24.14,10.52.21,15.82-5.79.08-11.58.16-17.36.26-.43-25.23-.86-50.47-1.29-75.7,10.34-.18,20.68-.32,31.03-.42ZM210.78,336.01c.1,5.31.21,10.61.31,15.92-2.02.04-4.04.08-6.06.12-6.3.13-10.97.24-14.02.32-3.05.07-7.62.19-13.72.35.04,1.62.09,3.24.13,4.85.05,1.88.09,3.27.11,4.17.02.91.06,2.26.11,4.07,7.2-.2,12.54-.32,16.01-.41,3.47-.08,8.71-.2,15.71-.34.11,5.6.23,11.19.34,16.79-7.18.14-12.49.27-15.95.35-3.46.08-8.67.21-15.65.4.09,3.17.15,5.52.19,7.03.04,1.52.1,3.83.19,6.94,7.81-.21,13.62-.35,17.42-.44,3.8-.09,9.48-.22,17.03-.36.1,5.31.21,10.61.31,15.92-17.23.34-34.46.77-51.69,1.31-.78-25.23-1.57-50.45-2.35-75.68,17.19-.53,34.38-.97,51.57-1.31ZM92.1,461.08c-.44-9.3-.88-18.59-1.32-27.89,2.12-.1,4.25-.2,6.37-.3.02.4.04.82.06,1.25.22,4.72.38,8.22.48,10.49.1,2.28.26,5.7.47,10.28,2.6-.12,4.54-.21,5.82-.26,1.28-.06,3.18-.14,5.71-.25.08,1.95.17,3.91.25,5.86-5.95.26-11.9.53-17.85.81ZM135.38,459.26c-.05-.12-.11-.23-.16-.35-.55-1.34-.97-2.34-1.24-3-.28-.66-.68-1.63-1.21-2.93-2.29.09-4,.15-5.12.2-1.12.04-2.8.11-5.02.2-.47,1.48-.82,2.56-1.05,3.27-.23.7-.57,1.77-1.02,3.19-2.19.09-4.39.18-6.58.27,3.05-9.44,6.13-18.88,9.23-28.32,2.51-.1,5.02-.2,7.53-.29,3.82,9.17,7.63,18.34,11.41,27.52-2.25.08-4.51.16-6.76.25ZM135.34,412.1c-4.04,1.35-8.19,2.11-12.44,2.27-10.75.43-21.5.89-32.25,1.4-1.18-25.21-2.37-50.42-3.55-75.63,11.43-.54,22.86-1.03,34.3-1.48,4.85-.19,9.07.48,12.66,2,3.58,1.52,6.34,3.72,8.26,6.6,1.93,2.88,2.95,6.23,3.08,10.04.09,2.52-.28,4.96-1.09,7.32-.81,2.36-2.08,4.44-3.8,6.25-1.72,1.81-3.82,3.15-6.3,4.02,0,.06,0,.13,0,.19,2.73.55,5.2,1.5,7.43,2.84,2.22,1.35,4.05,3.23,5.49,5.64,1.43,2.41,2.21,5.4,2.33,8.95.18,5.3-1.13,9.56-3.9,12.76-2.78,3.2-6.18,5.48-10.22,6.82ZM163.85,458.29c-.65-.93-1.31-1.86-1.97-2.77-.66-.91-1.33-1.82-2-2.73-1.23-1.7-2.49-3.47-3.8-5.29-1.3-1.82-2.49-3.51-3.55-5.08-.04,0-.07,0-.11,0,.1,2.93.17,5.12.22,6.55.05,1.43.12,3.57.21,6.4.04,1.07.07,2.16.11,3.26-2.11.07-4.22.14-6.34.22-.32-9.3-.65-18.6-.97-27.9,2.2-.08,4.39-.15,6.59-.22.78,1.1,1.56,2.19,2.34,3.29,1.51,2.1,3.06,4.27,4.64,6.51,1.58,2.24,3.05,4.39,4.41,6.45.02,0,.05,0,.07,0-.1-3.1-.17-5.41-.21-6.92-.05-1.51-.12-3.77-.21-6.78-.03-.98-.06-1.94-.09-2.9,2.13-.07,4.25-.13,6.38-.19.27,9.3.55,18.6.82,27.91-2.18.06-4.37.13-6.55.2ZM199.94,450.53c-.98,2.16-2.44,3.86-4.36,5.1-1.93,1.24-4.22,1.89-6.87,1.96-3.82.1-7.64.2-11.46.3-.26-9.3-.52-18.61-.78-27.91,3.73-.1,7.47-.2,11.2-.3,3-.08,5.51.47,7.54,1.64,2.02,1.17,3.53,2.78,4.52,4.82.99,2.04,1.52,4.38,1.58,7,.06,2.77-.4,5.23-1.38,7.39ZM224.94,456.82c-.04-2.41-.07-4.2-.09-5.37-.02-1.17-.05-2.92-.09-5.26-2.51.04-4.38.08-5.62.1-1.23.02-3.07.06-5.51.1.04,2.15.07,3.75.09,4.8.02,1.05.05,2.63.09,4.72,0,.36.01.73.02,1.11-2.11.04-4.22.08-6.34.13-.2-9.3-.39-18.61-.59-27.91,2.13-.04,4.25-.09,6.38-.13,0,.23,0,.45.01.68.05,2.36.08,4.12.1,5.26.02,1.15.06,2.86.1,5.15,2.52-.05,4.39-.08,5.63-.11,1.23-.02,3.07-.06,5.52-.1-.04-2.5-.07-4.37-.1-5.6-.02-1.23-.05-3.06-.09-5.49,2.13-.04,4.25-.07,6.38-.1.14,9.31.29,18.61.43,27.92-2.11.03-4.23.07-6.34.1ZM236.88,442.71c-.04-2.82.56-5.34,1.8-7.58,1.24-2.24,2.94-3.98,5.1-5.24,2.16-1.26,4.55-1.9,7.17-1.93,2.62-.03,5.02.57,7.21,1.79,2.19,1.22,3.92,2.94,5.21,5.14,1.29,2.21,1.94,4.71,1.97,7.5.02,2.79-.59,5.3-1.82,7.51-1.24,2.22-2.93,3.96-5.08,5.22-2.15,1.26-4.53,1.91-7.16,1.93-2.6.03-4.99-.56-7.17-1.76-2.18-1.2-3.91-2.9-5.21-5.09-1.3-2.19-1.97-4.69-2.01-7.51ZM357.96,511.02c-18.99,5.06-38.48,7.58-57.96,7.58s-38.97-2.53-57.96-7.58c-2.71-.72-4.39-3.08-3.77-5.2,1.6-5.49,3.19-10.99,4.79-16.48,1.76-6.06,3.52-12.12,5.28-18.18.52-1.76,2.17-2.89,3.95-2.89.36,0,.73.05,1.1.14,15.27,4.07,30.94,6.1,46.62,6.1s31.34-2.03,46.62-6.1c.37-.1.73-.14,1.09-.14,1.78,0,3.43,1.13,3.95,2.89,1.76,6.06,3.52,12.12,5.28,18.18,1.6,5.49,3.19,10.99,4.79,16.48.62,2.12-1.05,4.48-3.77,5.2ZM375.97,432.1c-1.36,2.53-2.73,5.06-4.08,7.59-1.36,2.53-2.72,5.06-4.07,7.6-.03,2.12-.06,3.71-.07,4.74-.02,1.04-.04,2.59-.07,4.67-2.11-.03-4.23-.06-6.34-.09,0-.55.02-1.1.02-1.65.03-1.74.04-3.04.05-3.88.01-.85.03-2.12.05-3.81-.95-1.92-1.67-3.35-2.13-4.29-.47-.94-1.17-2.34-2.1-4.22-1.17-2.31-2.03-4.02-2.6-5.15-.56-1.13-1.41-2.81-2.53-5.04,2.28.03,4.56.06,6.85.09.19.36.36.73.53,1.12,1.19,2.55,2.07,4.43,2.64,5.66.57,1.23,1.43,3.08,2.56,5.55.02,0,.05,0,.07,0,.84-1.64,1.66-3.27,2.47-4.92.8-1.65,1.63-3.29,2.47-4.92.4-.78.78-1.55,1.15-2.31,2.28.04,4.56.07,6.85.11-.57,1.04-1.14,2.09-1.71,3.16ZM398.86,449.45c1.18,1.77,2.96,4.42,5.34,7.96-2.57-.06-5.13-.12-7.7-.18-1.66-2.52-2.91-4.39-3.73-5.61-.82-1.22-2.05-3.06-3.67-5.5-.01,0-.02,0-.04,0-.59.66-1.03,1.14-1.32,1.44-.29.3-.72.77-1.28,1.41-.04,1.81-.06,3.16-.08,4.04-.02.88-.04,2.22-.08,4.01-2.11-.04-4.22-.08-6.34-.12.17-9.3.34-18.61.51-27.91,2.13.04,4.25.08,6.38.12-.05,2.53-.09,4.41-.11,5.65-.02,1.24-.06,3.09-.11,5.55.06,0,.12,0,.18,0,3.36-3.68,6.72-7.35,10.09-11,2.5.05,5,.11,7.49.17-2.49,2.69-4.34,4.68-5.54,5.98-1.2,1.3-3.01,3.24-5.42,5.84,0,.01,0,.02,0,.04,2.44,3.63,4.25,6.33,5.43,8.1ZM426.43,458c-5.95-.17-11.91-.33-17.86-.48.23-9.3.46-18.61.69-27.91,2.13.05,4.25.11,6.38.16-.01.41-.02.82-.03,1.25-.12,4.72-.21,8.22-.27,10.5-.06,2.28-.15,5.71-.27,10.29,2.61.07,4.55.12,5.83.16s3.18.09,5.72.16c-.06,1.96-.11,3.91-.17,5.87ZM452.35,447.53c-.07,1.93-.36,3.74-.89,5.43-.52,1.69-1.61,3.15-3.27,4.38-1.65,1.23-4.04,1.8-7.17,1.7-3.1-.1-5.44-.82-7.01-2.15-1.57-1.34-2.57-2.86-2.98-4.58-.41-1.72-.6-3.54-.54-5.48.16-5.55.33-11.09.49-16.64,2.13.06,4.25.13,6.38.19-.17,5.37-.33,10.73-.5,16.1-.04,1.26.05,2.37.26,3.32.21.95.65,1.72,1.31,2.31.66.59,1.6.91,2.82.95,1.72.06,2.92-.46,3.6-1.55.68-1.09,1.07-2.6,1.15-4.53,0-.07,0-.14,0-.22.18-5.37.35-10.73.53-16.1,2.13.07,4.25.14,6.38.22-.19,5.54-.38,11.09-.57,16.63ZM478.95,456.77c-1.1,1.1-2.4,1.84-3.91,2.23-1.51.38-3.04.54-4.59.48-3.92-.15-7.85-.3-11.78-.44.33-9.3.67-18.6,1-27.9,4.13.15,8.26.3,12.39.46,1.75.07,3.25.43,4.5,1.09,1.25.66,2.18,1.54,2.8,2.66.62,1.11.89,2.37.84,3.78-.04.93-.24,1.82-.59,2.66-.36.85-.87,1.58-1.55,2.19-.67.62-1.47,1.05-2.39,1.3,0,.02,0,.05,0,.07.97.28,1.84.69,2.61,1.25.77.56,1.38,1.3,1.83,2.22.45.93.65,2.04.6,3.36-.08,1.96-.67,3.48-1.77,4.59ZM506.47,457.97c-1.1,1.1-2.41,1.83-3.92,2.2-1.51.37-3.04.52-4.59.45-3.92-.18-7.85-.35-11.77-.51.39-9.3.79-18.6,1.18-27.89,4.13.17,8.26.35,12.39.54,1.75.08,3.25.45,4.49,1.12,1.24.67,2.17,1.56,2.78,2.67.61,1.12.88,2.38.81,3.78-.04.93-.25,1.82-.61,2.66-.36.84-.88,1.57-1.56,2.18-.68.61-1.48,1.04-2.4,1.29,0,.02,0,.05,0,.07.97.28,1.84.71,2.6,1.27.77.56,1.37,1.31,1.82,2.24.45.93.64,2.05.58,3.36-.09,1.96-.69,3.48-1.79,4.57ZM507.87,415.7c-5.98-.28-11.96-.55-17.94-.8-1.59-2.66-3.2-5.29-4.83-7.88-1.63-2.59-3.28-5.19-4.95-7.78-3.02-4.85-6.15-9.86-9.38-15.04-3.23-5.17-6.16-9.98-8.77-14.41-.1,0-.2,0-.3-.01-.29,7.96-.5,13.87-.64,17.75-.14,3.88-.35,9.67-.62,17.36-.1,2.91-.21,5.85-.32,8.83-5.79-.21-11.57-.4-17.36-.59l2.42-75.68c6.08.19,12.17.4,18.25.62,1.95,3.12,3.9,6.23,5.84,9.35,3.76,5.97,7.6,12.14,11.52,18.51,3.91,6.37,7.52,12.48,10.83,18.32.07,0,.13,0,.2,0,.36-8.4.63-14.66.8-18.77.17-4.11.44-10.23.79-18.38.11-2.65.22-5.27.34-7.86,5.88.25,11.76.51,17.65.79-1.18,25.21-2.35,50.42-3.53,75.63Z"/>
        <path class="cls-1" d="M272.7,483.88c-1.13-.78-2.42-1.31-3.91-1.6-1.64-.33-3.18-.29-4.65.11-1.47.4-2.73,1.12-3.79,2.18-1.06,1.05-1.8,2.36-2.21,3.94,1.59.67,3.19,1.33,4.8,1.95.22-.89.55-1.65.98-2.26.43-.61.96-1.04,1.62-1.3.65-.25,1.38-.3,2.21-.13.63.13,1.14.34,1.54.64.4.3.68.66.84,1.07.16.41.2.85.11,1.32-.08.45-.27.85-.57,1.18-.3.34-.7.63-1.18.89-.49.26-1.15.55-1.97.88-.3.1-.59.2-.89.32-.64.22-1.19.43-1.64.63-1.73.67-3.15,1.35-4.25,2.06-1.1.71-2,1.56-2.68,2.57-.69,1.01-1.23,2.27-1.61,3.8-.05.2-.1.41-.16.61,5.78,1.46,11.6,2.63,17.46,3.51.23-1.56.47-3.11.7-4.67-2.18-.33-3.81-.61-4.88-.81-1.08-.19-2.73-.5-4.96-.96.33-.5.76-.93,1.31-1.29.54-.36,1.12-.66,1.73-.89.61-.23,1.37-.49,2.28-.77.46-.13.98-.31,1.58-.54.91-.35,1.73-.77,2.46-1.27.72-.5,1.34-1.11,1.84-1.84.5-.73.83-1.59.97-2.58.2-1.39.01-2.66-.55-3.83-.56-1.17-1.41-2.13-2.53-2.91Z"/>
        <path class="cls-1" d="M294.25,486.73c-1.32-1.04-2.86-1.6-4.66-1.72-1.8-.12-3.4.24-4.86,1.1-1.46.86-2.66,2.11-3.61,3.79-.95,1.68-1.58,3.66-1.86,5.94-.28,2.27-.13,4.33.47,6.18.6,1.85,1.62,3.34,3.05,4.46,1.43,1.12,3.21,1.76,5.29,1.9,2.06.13,3.89-.27,5.46-1.2,1.56-.93,2.76-2.27,3.6-4.03.84-1.75,1.24-3.78,1.27-6.06.02-2.3-.35-4.35-1.07-6.13-.72-1.79-1.75-3.19-3.07-4.23ZM292.54,496.91c-.07,1.55-.27,2.84-.63,3.86-.35,1.02-.84,1.77-1.44,2.24-.61.47-1.3.68-2.08.63-.8-.05-1.47-.35-2.01-.89-.54-.54-.93-1.35-1.16-2.41-.23-1.06-.28-2.37-.14-3.92.14-1.55.4-2.83.8-3.85.39-1.02.88-1.75,1.45-2.21.58-.46,1.23-.66,1.97-.61.72.05,1.33.33,1.84.86.51.53.89,1.32,1.14,2.38.25,1.06.34,2.37.27,3.92Z"/>
        <path class="cls-1" d="M315.8,502.84c-1.08.1-2.76.24-5.02.38.18-.57.49-1.1.92-1.59.43-.49.9-.93,1.43-1.31.53-.39,1.19-.83,1.99-1.35.4-.25.86-.56,1.37-.94.79-.58,1.47-1.2,2.03-1.87.57-.67.99-1.43,1.29-2.26.3-.84.38-1.75.26-2.74-.17-1.39-.69-2.57-1.54-3.55-.85-.98-1.92-1.68-3.2-2.14-1.29-.45-2.67-.62-4.18-.52-1.66.12-3.13.55-4.44,1.33-1.3.78-2.32,1.8-3.06,3.1-.74,1.29-1.1,2.75-1.08,4.39,1.7.23,3.4.44,5.11.62-.02-.92.09-1.73.34-2.44.25-.7.65-1.26,1.21-1.68.56-.42,1.25-.65,2.09-.71.64-.04,1.19.02,1.65.21.47.18.83.45,1.09.81.26.35.41.77.46,1.25.04.46-.04.89-.24,1.29-.2.4-.5.79-.91,1.17-.4.38-.95.84-1.66,1.37-.26.17-.52.35-.77.54-.56.38-1.03.73-1.41,1.04-1.48,1.1-2.67,2.13-3.53,3.1-.87.97-1.5,2.03-1.9,3.18-.39,1.15-.58,2.52-.55,4.09,0,.21,0,.42.01.63,5.91-.12,11.82-.52,17.7-1.21-.18-1.56-.37-3.13-.55-4.69-2.19.26-3.83.41-4.91.51Z"/>
        <path class="cls-1" d="M341.67,494.49c-.33.08-.85.21-1.55.38-.7-2.93-1.22-5.14-1.57-6.61-.35-1.48-.89-3.74-1.61-6.78-1.58.37-3.16.73-4.75,1.05-2.6,5.28-5.53,10.5-8.78,15.63.18,1.34.37,2.68.55,4.03,3.93-.53,7.83-1.2,11.7-1.99.2.96.34,1.68.44,2.16.1.48.25,1.22.45,2.22,1.86-.38,3.72-.79,5.58-1.23-.23-.95-.4-1.67-.51-2.14-.11-.48-.29-1.21-.52-2.2.7-.17,1.22-.29,1.55-.38.34-.08.86-.21,1.58-.4-.35-1.37-.7-2.73-1.05-4.1-.68.17-1.18.3-1.51.38ZM331.96,496.6c-.63.12-1.61.3-2.92.52,1.01-1.73,1.74-3.03,2.23-3.89.48-.86,1.21-2.19,2.16-3.99.31,1.51.54,2.63.69,3.37.15.74.39,1.89.7,3.43-1.27.26-2.22.44-2.85.56Z"/>
      </g>
    </g>
  </g>
</svg>