<?xml version="1.0" encoding="UTF-8"?>
<svg xmlns="http://www.w3.org/2000/svg" version="1.1" viewBox="0 0 500 400">
  <!-- Generator: Adobe Illustrator 28.7.1, SVG Export Plug-In . SVG Version: 1.2.0 Build 142)  -->
  <g>
    <g id="Layer_1">
      <path d="M449.66,326.93c-12.81-21.89-84.53-144.83-98.39-163.41-.04-.06-.09-.12-.13-.18-3.3-4.29-8.65-10.56-15.39-16.04-.16-.13-.33-.26-.5-.39-18.42-13.77-45.23-11.29-59.76,5.55-13.33,15.44-11.07,32.6-9.42,45.13,1.1,8.33,8.89,14.21,17.41,13.14,8.52-1.07,14.53-8.7,13.43-17.03-1.5-11.41-1.74-16.9,2.33-21.61,3.87-4.48,11.54-5,16.89-1.17,4.28,3.53,7.82,7.7,10.08,10.64,9.94,13.34,70.33,101.21,98.57,141.33H134.58c18.55-24.38,48.21-60.96,64.58-81.04,2.32-2.84,5.81-7.1,10.08-10.63,5.34-3.82,13.01-3.31,16.88,1.18,4.07,4.71,3.84,10.2,2.33,21.61-1.1,8.33,4.92,15.95,13.43,17.03,8.52,1.08,16.31-4.81,17.41-13.14,1.65-12.53,3.91-29.69-9.42-45.13-14.54-16.83-41.35-19.32-59.76-5.55l-.5.39c-6.74,5.49-12.09,11.75-15.39,16.04l-.13.18c-7.07,9.49-47.19,74.07-63.75,99.06h-35.1c17.81-25.48,135.74-200.2,155.97-227.34,2.26-2.93,5.8-7.1,10.08-10.63,5.34-3.82,13.01-3.31,16.88,1.18,4.09,4.73,3.87,9.95,2.33,21.61-1.1,8.33,4.92,15.95,13.43,17.03,8.52,1.08,16.31-4.81,17.41-13.14,1.65-12.53,3.91-29.69-9.42-45.13-14.54-16.83-41.35-19.32-59.76-5.55-.17.13-.34.26-.5.39-6.75,5.49-12.09,11.76-15.39,16.05-.04.06-.09.12-.13.18-21.14,28.35-149.35,235.28-156.71,251.21-.96,2.08-1.94,4.24-1.94,6.7,0,6.94,5.6,12.57,12.51,12.57h379.97c6.91,0,12.51-5.63,12.51-12.57,0-3.18-1.35-5.96-2.84-8.5Z"/>
    </g>
  </g>
</svg>